<svg id="Layer_1" data-name="Layer 1" xmlns="http://www.w3.org/2000/svg" viewBox="0 0 200 200"><defs><style>.cls-1{fill:#404f60;}.cls-2{fill:#27ae61;}</style></defs><title>new icons</title><path class="cls-1" d="M188,151.83A36.14,36.14,0,0,1,151.83,188H48.17A36.13,36.13,0,0,1,12,151.83V48.18A36.13,36.13,0,0,1,48.17,12H151.83A36.14,36.14,0,0,1,188,48.18Z"/><path class="cls-2" d="M139.91,70.16H124.2l-1.73-5.41c-1.53-5-4.91-5.39-8.55-5.39H86.08c-3.63,0-7,.41-8.54,5.37L75.8,70.16H60.09a8.76,8.76,0,0,0-8.75,8.75v53a8.76,8.76,0,0,0,8.75,8.75h79.82a8.76,8.76,0,0,0,8.75-8.75v-53A8.76,8.76,0,0,0,139.91,70.16Zm4.75,61.74a4.76,4.76,0,0,1-4.75,4.75H60.09a4.76,4.76,0,0,1-4.75-4.75v-53a4.76,4.76,0,0,1,4.75-4.75H77.26a2,2,0,0,0,1.91-1.39l2.19-6.84c.64-2.08,1.15-2.56,4.72-2.56h27.84c3.57,0,4.08.48,4.73,2.59l2.18,6.82a2,2,0,0,0,1.9,1.39h17.17a4.76,4.76,0,0,1,4.75,4.75v53ZM100,85a21.61,21.61,0,1,0,21.61,21.61A21.63,21.63,0,0,0,100,85Zm0,39.22a17.61,17.61,0,1,1,17.61-17.61A17.63,17.63,0,0,1,100,124.19Z"/></svg>