<svg id="Layer_1" data-name="Layer 1" xmlns="http://www.w3.org/2000/svg" viewBox="0 0 200 200"><defs><style>.cls-1{fill:#404f60;}.cls-2{fill:#27ae61;}</style></defs><title>new icons</title><path class="cls-1" d="M188,151.83A36.14,36.14,0,0,1,151.83,188H48.17A36.13,36.13,0,0,1,12,151.83V48.18A36.13,36.13,0,0,1,48.17,12H151.83A36.14,36.14,0,0,1,188,48.18Z"/><path class="cls-2" d="M100,85.73h0a14.32,14.32,0,1,0,14.32,14.32h0A14.33,14.33,0,0,0,100,85.73Zm0,23.11a8.8,8.8,0,0,1,0-17.58h0a8.79,8.79,0,0,1,8.44,9.14A8.65,8.65,0,0,1,100,108.84Z"/><path class="cls-2" d="M137.16,91a3.16,3.16,0,1,0,0-6.32h-4.84V81.52a13.66,13.66,0,0,0-13.69-13.69h-3.16V62.89a3.16,3.16,0,0,0-6.32,0v4.84H90.95V62.89a3.16,3.16,0,0,0-6.32,0v4.84H81.47A13.66,13.66,0,0,0,67.78,81.42v3.16H62.84a3.16,3.16,0,0,0,0,6.32h4.84v14.74H62.84a3.16,3.16,0,0,0,0,6.32h4.84v6.53a13.66,13.66,0,0,0,13.69,13.69h3.16V137a3.16,3.16,0,1,0,6.32,0v-4.74h18.21v4.84a3.16,3.16,0,0,0,6.32,0v-4.84h3.16a13.66,13.66,0,0,0,13.69-13.69v-6.53h4.84a3.16,3.16,0,0,0,0-6.32h-4.84V91Zm-10.87,27.89a7.41,7.41,0,0,1-7.45,7.45H81.16a7.41,7.41,0,0,1-7.45-7.45V81.21a7.41,7.41,0,0,1,7.45-7.45h37.57a7.41,7.41,0,0,1,7.45,7.45v37.68Z"/></svg>