<svg id="Layer_1" data-name="Layer 1" xmlns="http://www.w3.org/2000/svg" viewBox="0 0 200 200"><defs><style>.cls-1{fill:#404f60;}.cls-2{fill:#27ae61;}</style></defs><title>new icons</title><path class="cls-1" d="M188,151.83A36.14,36.14,0,0,1,151.83,188H48.17A36.13,36.13,0,0,1,12,151.83V48.18A36.13,36.13,0,0,1,48.17,12H151.83A36.14,36.14,0,0,1,188,48.18Z"/><path class="cls-2" d="M119.73,59.95a2,2,0,0,0-1.44-.59H77.65A10.17,10.17,0,0,0,67.49,69.52v61a10.17,10.17,0,0,0,10.16,10.16h44.71a10.17,10.17,0,0,0,10.16-10.16v-8.13a2,2,0,0,0-.59-1.44l-3.47-3.47V106.94l3.47-3.47a2,2,0,0,0,.59-1.43V73.58a2,2,0,0,0-.59-1.44Zm8.72,41.24L125,104.66a2,2,0,0,0-.59,1.43v12.19a2,2,0,0,0,.59,1.44l3.47,3.47v7.28a6.1,6.1,0,0,1-6.1,6.1H77.65a6.1,6.1,0,0,1-6.1-6.1v-61a6.1,6.1,0,0,1,6.1-6.1h39.8l11,11Z"/><path class="cls-2" d="M85.77,71.55a2,2,0,0,0-2,2V85.77a2,2,0,0,0,4.06,0V73.58A2,2,0,0,0,85.77,71.55Z"/><path class="cls-2" d="M100,71.55a2,2,0,0,0-2,2V85.77a2,2,0,1,0,4.06,0V73.58A2,2,0,0,0,100,71.55Z"/><path class="cls-2" d="M114.23,71.55a2,2,0,0,0-2,2V85.77a2,2,0,0,0,4.06,0V73.58A2,2,0,0,0,114.23,71.55Z"/></svg>