<svg id="Layer_1" data-name="Layer 1" xmlns="http://www.w3.org/2000/svg" xmlns:xlink="http://www.w3.org/1999/xlink" viewBox="0 0 200 200"><defs><style>.cls-1{fill:url(#radial-gradient);}.cls-2{fill:#fff;}</style><radialGradient id="radial-gradient" cx="101.34" cy="227.52" r="236.94" gradientUnits="userSpaceOnUse"><stop offset="0" stop-color="#3b5998"/><stop offset="0.3" stop-color="#3b5998"/><stop offset="1" stop-color="#5f83cf"/></radialGradient></defs><title>new icons</title><path class="cls-1" d="M188,151.82A36.13,36.13,0,0,1,151.83,188H48.18A36.13,36.13,0,0,1,12,151.82V48.18A36.13,36.13,0,0,1,48.18,12H151.83A36.13,36.13,0,0,1,188,48.18Z"/><path class="cls-2" d="M147.3,60.4h16.23V34.89H139.21s-15.29-.38-25,12.29c0,0-6.64,6.26-6.74,24.59h0V90.9h-24V118h24v70h27.72V118H159l3.32-27.08H135.15V71.77h0C135.21,69.63,136.16,60.21,147.3,60.4Z"/></svg>