<svg id="Layer_1" data-name="Layer 1" xmlns="http://www.w3.org/2000/svg" xmlns:xlink="http://www.w3.org/1999/xlink" viewBox="0 0 200 200"><defs><style>.cls-1{fill:url(#radial-gradient);}.cls-2{fill:url(#radial-gradient-2);}.cls-3{fill:url(#radial-gradient-3);}</style><radialGradient id="radial-gradient" cx="94.05" cy="223.35" r="226.32" gradientUnits="userSpaceOnUse"><stop offset="0.26" stop-color="#36b649"/><stop offset="0.76" stop-color="#57c965"/></radialGradient><radialGradient id="radial-gradient-2" cx="75.73" cy="168.48" r="138.83" gradientUnits="userSpaceOnUse"><stop offset="0.22" stop-color="#e7e7e7"/><stop offset="0.88" stop-color="#fcfcfc"/></radialGradient><radialGradient id="radial-gradient-3" cx="77.19" cy="139.4" r="62.11" gradientUnits="userSpaceOnUse"><stop offset="0.22" stop-color="#e7e7e7"/><stop offset="0.88" stop-color="#fff"/></radialGradient></defs><title>new icons</title><path class="cls-1" d="M188,151.83A36.13,36.13,0,0,1,151.83,188H48.18A36.13,36.13,0,0,1,12,151.83V48.18A36.14,36.14,0,0,1,48.18,12H151.83A36.13,36.13,0,0,1,188,48.18Z"/><path class="cls-2" d="M101.18,35.14a64.24,64.24,0,0,0-55.24,97l-8.1,32.66L70,155.58A64.25,64.25,0,1,0,101.18,35.14ZM101.91,153a53.07,53.07,0,0,1-30.22-9.4l-18.33,5.28L58,130a53.33,53.33,0,1,1,43.87,23Z"/><path class="cls-3" d="M84.94,94.3l2.23-2.57c1.25-1.45,3.13-2.85,3.22-4.94A14.61,14.61,0,0,0,89.06,81c-.46-1.17-.92-2.34-1.37-3.52-.81-2.14-1.86-5.13-3-6.38a5.7,5.7,0,0,0-6.5-1s-12.61,6.06-8.72,18.18c0,0,7.51,34.18,45.34,41.21,0,0,13.57,1.94,17.21-6.3a14.54,14.54,0,0,0,1.19-6.21c-.13-1.88-1.45-3.12-3-4-2-1.14-3.77-2.21-6-3.33-2-1-4.24-2.4-6.5-1.78-1.66.46-2.86,2-4,3.19-1.47,1.56-3,3.09-4.46,4.64C109.19,115.63,90,108.6,84.94,94.3Z"/></svg>