<svg id="Layer_1" data-name="Layer 1" xmlns="http://www.w3.org/2000/svg" xmlns:xlink="http://www.w3.org/1999/xlink" viewBox="0 0 200 200"><defs><style>.cls-1{fill:url(#radial-gradient);}.cls-2{fill:#fff;}.cls-3{fill:url(#radial-gradient-2);}.cls-4{fill:url(#radial-gradient-3);}</style><radialGradient id="radial-gradient" cx="100" cy="100" r="87.96" gradientUnits="userSpaceOnUse"><stop offset="0.17" stop-color="#c2181e"/><stop offset="0.77" stop-color="#de2925"/></radialGradient><radialGradient id="radial-gradient-2" cx="104.76" cy="100.77" r="18.4" xlink:href="#radial-gradient"/><radialGradient id="radial-gradient-3" cx="104.76" cy="92.72" r="14.74" xlink:href="#radial-gradient"/></defs><title>new icons-10</title><path class="cls-1" d="M188,151.82A36.14,36.14,0,0,1,151.83,188H48.18A36.14,36.14,0,0,1,12,151.82V48.17A36.13,36.13,0,0,1,48.18,12H151.83A36.14,36.14,0,0,1,188,48.17Z"/><path class="cls-2" d="M166.1,116c0,16.66-5.7,30.17-22.35,30.17H58c-16.66,0-24.14-13.51-24.14-30.17V84c0-16.66,6.77-30.17,23.43-30.17h87.14c16.66,0,21.65,13.5,21.65,30.17Z"/><polygon class="cls-3" points="86.75 81.97 122.76 100.77 86.75 119.56 86.75 81.97"/><polygon class="cls-4" points="86.75 82.26 118.07 103.21 122.76 100.77 89.53 83.43 86.75 82.22 86.75 82.26"/></svg>