<svg id="Layer_1" data-name="Layer 1" xmlns="http://www.w3.org/2000/svg" viewBox="0 0 200 200"><defs><style>.cls-1{fill:#404f60;}.cls-2{fill:#27ae61;}</style></defs><title>new icons</title><path class="cls-1" d="M188,151.83A36.14,36.14,0,0,1,151.83,188H48.17A36.13,36.13,0,0,1,12,151.83V48.18A36.13,36.13,0,0,1,48.17,12H151.83A36.14,36.14,0,0,1,188,48.18Z"/><path class="cls-2" d="M92.69,54.09a6,6,0,0,0-6,6v5.67a11,11,0,0,0-10.43,11v58.15a11,11,0,0,0,11,11h25.48a11,11,0,0,0,11-11h0V76.73a11,11,0,0,0-11-11h-.43V60.09a6,6,0,0,0-6-6Zm20,15.64a7,7,0,0,1,7,7h0v58.18a7,7,0,0,1-7,7H87.26a7,7,0,0,1-7-7V76.73a7,7,0,0,1,7-7Zm-6.43-11.64a2,2,0,0,1,2,2v5.64H90.69V60.09a2,2,0,0,1,2-2Z"/><path class="cls-2" d="M106.56,103.45h-5.15l3.34-10.37a.3.3,0,0,0-.18-.38l-.1,0H97.33a.3.3,0,0,0-.29.21l-3.87,13.76a.3.3,0,0,0,.21.37H98.2l-2,12a.3.3,0,0,0,.18.33h.12a.3.3,0,0,0,.24-.13l10.11-15.27a.3.3,0,0,0-.24-.47Z"/></svg>