<svg id="Layer_1" data-name="Layer 1" xmlns="http://www.w3.org/2000/svg" xmlns:xlink="http://www.w3.org/1999/xlink" viewBox="0 0 200 200"><defs><style>.cls-1{fill:url(#radial-gradient);}.cls-2{fill:#fff;}</style><radialGradient id="radial-gradient" cx="63.57" cy="201.59" r="233.12" gradientUnits="userSpaceOnUse"><stop offset="0.1" stop-color="#ffd879"/><stop offset="0.15" stop-color="#fccb76"/><stop offset="0.26" stop-color="#f5aa6c"/><stop offset="0.4" stop-color="#e9755e"/><stop offset="0.45" stop-color="#e45f58"/><stop offset="0.68" stop-color="#d22a9c"/><stop offset="1" stop-color="#6968df"/></radialGradient></defs><title>new icons</title><path class="cls-1" d="M188,151.83A36.14,36.14,0,0,1,151.83,188H48.17A36.14,36.14,0,0,1,12,151.83V48.18A36.14,36.14,0,0,1,48.17,12H151.83A36.14,36.14,0,0,1,188,48.18Z"/><path class="cls-2" d="M125.46,33.66H74.54A40.88,40.88,0,0,0,33.66,74.55v50.92a40.88,40.88,0,0,0,40.88,40.87h50.92a40.87,40.87,0,0,0,40.88-40.87V74.55A40.88,40.88,0,0,0,125.46,33.66Zm28.14,86.91a33,33,0,0,1-33,33H79.43a33,33,0,0,1-33-33V79.43a33,33,0,0,1,33-33h41.15a33,33,0,0,1,33,33Z"/><path class="cls-2" d="M101.78,65.29a34.95,34.95,0,1,0,34.95,34.94A34.94,34.94,0,0,0,101.78,65.29Zm0,56a21,21,0,1,1,21-21A21,21,0,0,1,101.78,121.26Z"/><circle class="cls-2" cx="134.3" cy="64.74" r="8.89"/></svg>