<svg id="Layer_1" data-name="Layer 1" xmlns="http://www.w3.org/2000/svg" viewBox="0 0 200 200"><defs><style>.cls-1{fill:#404f60;}.cls-2{fill:#27ae61;}</style></defs><title>new icons</title><path class="cls-1" d="M188,151.83A36.14,36.14,0,0,1,151.83,188H48.17A36.13,36.13,0,0,1,12,151.83V48.18A36.13,36.13,0,0,1,48.17,12H151.83A36.14,36.14,0,0,1,188,48.18Z"/><path class="cls-2" d="M73.85,63.29a24.87,24.87,0,0,1,2.8-1.5,9.14,9.14,0,0,0,1.4-.7c.1-.1.9-.4.6-.3s.2-.1.2-.1a4.88,4.88,0,0,1,.7-.3c1.3-.5,2.7-1,4.1-1.4a56.73,56.73,0,0,1,24.6-1.9,62.08,62.08,0,0,1,18.4,6,2.26,2.26,0,1,0,2.3-3.9,64.12,64.12,0,0,0-32.5-7,60.61,60.61,0,0,0-21,5.2,27.54,27.54,0,0,0-3.8,2,2.28,2.28,0,0,0-.8,3.1,2.15,2.15,0,0,0,3,.8Z"/><path class="cls-2" d="M68.75,129.39a39.94,39.94,0,0,1-2.2-8.4c-.1-.6-.2-1.3-.3-1.9,0-.1-.1-.7,0,0a.9.9,0,0,0-.1-.5c0-.4-.1-.8-.1-1.2a34.64,34.64,0,0,1-.2-4.6,40.28,40.28,0,0,1,.3-4.9,1.27,1.27,0,0,1,.1-.6c-.1.5,0-.1,0-.2.1-.4.1-.8.2-1.2a19.8,19.8,0,0,1,.6-2.6,28.86,28.86,0,0,1,4.4-9.6,27.12,27.12,0,0,1,3.6-4.1,33.32,33.32,0,0,1,5.1-4A35.36,35.36,0,0,1,95.85,80a39,39,0,0,1,17.9,2.5,31.6,31.6,0,0,1,11.9,7.8,30.06,30.06,0,0,1,4.5,6.1c.7,1.2,1.4,2.5,2,3.8.3.7.7,1.4,1,2.1-.2-.4-.1-.1,0,0a17.23,17.23,0,0,1,.7,2.1,11.63,11.63,0,0,1,.4,1.8c.1.3.1.7.2,1.1,0,.2.1.4.1.6-.1-.6,0,.3,0,.4a20.08,20.08,0,0,1,.1,2.5v2.4h0a8.89,8.89,0,0,1-1.9,4.7l-.2.3-.5.5a4.37,4.37,0,0,1-.8.7,8.86,8.86,0,0,1-3.4,1.6,10.88,10.88,0,0,1-8.1-.7,9.92,9.92,0,0,1-4.3-4.3,7.26,7.26,0,0,1-.5-1.2,3.55,3.55,0,0,1-.2-1c-.1-.4-.4-1.2,0-.3-.2-.5,0-1.2-.1-1.7a24.18,24.18,0,0,0-.3-2.5c-2.2-11-17.9-14.4-25-6.2-5.4,6.2-3.9,15.3-1,22.3a35.88,35.88,0,0,0,17.4,18.4,54.4,54.4,0,0,0,7.9,3.2c2.8.9,4-3.5,1.2-4.4a41.57,41.57,0,0,1-13.5-7.1,30.09,30.09,0,0,1-7.4-8.9l-1.2-2.4-.1-.2a1.69,1.69,0,0,1-.2-.5,5.64,5.64,0,0,1-.4-1.2,31.66,31.66,0,0,1-1.2-4.4c-.1-.7-.2-1.3-.3-1.9,0-.2,0-.3-.1-.4-.1-.5,0,.2,0,0s-.1-.6-.1-.9a11.32,11.32,0,0,1,1.4-7.2c2.8-4.6,8.3-5.4,12.9-3.5a9.2,9.2,0,0,1,4.3,3.5c1.2,1.9,1.1,4,1.4,6.3.1.6,0,.2,0,.1,0,.3.1.5.1.8s.1.7.2,1a13.06,13.06,0,0,0,.8,2.1,9.17,9.17,0,0,0,1.3,2.1,14.52,14.52,0,0,0,7.6,5.2c5.4,1.6,12,.2,15.7-4.2,4.5-5.4,4-13.3,1.9-19.7a38.93,38.93,0,0,0-6.5-11.6,34.22,34.22,0,0,0-11.2-9.5c-11.4-6-25.1-6.8-36.8-1.4-8.1,3.7-15.1,10-18.6,18.3a42,42,0,0,0-2.8,20.5,52.66,52.66,0,0,0,2.6,12.4,1.42,1.42,0,0,1,.2.6,2.28,2.28,0,0,0,2.8,1.6,2.21,2.21,0,0,0,1.1-2.7Z"/><path class="cls-2" d="M61.55,87.59a1.76,1.76,0,0,1,.4-.5,2.09,2.09,0,0,0,.4-.6c.1-.2.5-.6,0,0,.1-.2.3-.3.4-.5a62.93,62.93,0,0,1,4.3-4.7,45,45,0,0,1,6.9-5.5,47.25,47.25,0,0,1,9.8-4.9,48,48,0,0,1,12.5-2.6,52.29,52.29,0,0,1,5.6,0c.9,0,1.9.1,2.8.1a8.75,8.75,0,0,1,1.6.2c.3,0,.6.1.9.1.6.1-.5-.1.1,0a.75.75,0,0,1,.5.1,55.1,55.1,0,0,1,8.9,2.2,46.87,46.87,0,0,1,21.8,16.6,2.26,2.26,0,0,0,3.9-2.3,50.17,50.17,0,0,0-39-21.5,55.53,55.53,0,0,0-17.7,1.7,53.06,53.06,0,0,0-20,11,44.06,44.06,0,0,0-7.9,8.8c-1.7,2.5,2.2,4.8,3.8,2.3Z"/><path class="cls-2" d="M97.55,112.09a24.33,24.33,0,0,0,3.5,12.3,23.77,23.77,0,0,0,13.7,11.4c4.6,1.4,9.2,1.2,14,.7a2.4,2.4,0,0,0,2.3-2.3,2.26,2.26,0,0,0-2.3-2.3c-3.9.4-7.8.7-11.4-.2a17.7,17.7,0,0,1-3.9-1.4c-.6-.3-1.2-.7-1.8-1a3.51,3.51,0,0,0-.8-.5,1.38,1.38,0,0,1-.4-.3h0c-.1-.1-.2-.1-.2-.2a18.53,18.53,0,0,1-2.8-2.8c-.2-.2-.4-.5-.6-.7.3.3-.3-.4-.3-.5-.4-.5-.7-1.1-1.1-1.6a30.13,30.13,0,0,1-1.6-3.1c0-.1-.1-.2-.1-.3.2.5.1.2,0,.1-.1-.3-.2-.5-.3-.8-.2-.5-.3-1-.5-1.5a26.81,26.81,0,0,1-.7-2.7c0-.1-.1-.8-.1-.3s0-.2,0-.3V112c0-2.8-4.5-2.8-4.6.1Z"/><path class="cls-2" d="M126.75,112.29a24.7,24.7,0,0,0-5.7-16c-5.7-7.2-15.7-10.6-24.7-9.4-8.7,1.1-17.3,7-20.9,15.1a30.82,30.82,0,0,0-1.9,16.7,46.72,46.72,0,0,0,14.2,26.6c2.1,2,5.3-1.2,3.2-3.2a43.29,43.29,0,0,1-12.6-22,17.66,17.66,0,0,1-.4-2,.6.6,0,0,0-.1-.4c-.1-.6.1.5,0-.1,0-.3-.1-.7-.1-1a26.35,26.35,0,0,1-.2-2.8,27.84,27.84,0,0,1,.6-5.8,19.56,19.56,0,0,1,5.2-9.7,31.78,31.78,0,0,1,3.6-3,23.55,23.55,0,0,1,5.7-2.9,23.19,23.19,0,0,1,14.5.1,20.76,20.76,0,0,1,8.9,5.4,16.84,16.84,0,0,1,3,3.9,12.45,12.45,0,0,1,1,2c.1.2.2.3.2.5.2.5-.1-.3.1.2.1.3.3.7.4,1a22.38,22.38,0,0,1,1,3.7c0,.3.1.5.1.8-.1-.8,0,0,0,.2a18.48,18.48,0,0,1,.1,2.3c.2,2.8,4.8,2.8,4.8-.2Z"/></svg>