<svg id="Layer_1" data-name="Layer 1" xmlns="http://www.w3.org/2000/svg" viewBox="0 0 200 200"><defs><style>.cls-1{fill:#404f60;}.cls-2{fill:#27ae61;stroke:#27ae61;stroke-miterlimit:10;}</style></defs><title>new icons</title><path class="cls-1" d="M188,151.83A36.14,36.14,0,0,1,151.83,188H48.17A36.13,36.13,0,0,1,12,151.83V48.18A36.13,36.13,0,0,1,48.17,12H151.83A36.14,36.14,0,0,1,188,48.18Z"/><path class="cls-2" d="M81.94,74.27a2.38,2.38,0,0,0-2.41,2.41,2.41,2.41,0,0,0,2.41,2.41,2.44,2.44,0,0,0,2.41-2.41A2.41,2.41,0,0,0,81.94,74.27Z"/><path class="cls-2" d="M137,59.47a1.2,1.2,0,1,0-1.7-1.7l-9.78,9.78a37.16,37.16,0,0,0-51,0l-9.76-9.76a1.2,1.2,0,1,0-1.7,1.7l9.76,9.76A37,37,0,0,0,62.68,94.74V99a1.2,1.2,0,0,0,1.2,1.2h72.23a1.2,1.2,0,0,0,1.2-1.2V94.74a36.94,36.94,0,0,0-10.14-25.48Zm-2.06,38.36H65.09V94.74a34.91,34.91,0,0,1,69.83,0Z"/><path class="cls-2" d="M119.8,75l-.05,0,0-.06a1.21,1.21,0,0,0-.22-.13,2.34,2.34,0,0,0-1.43-.54,2.38,2.38,0,0,0-2.41,2.41,2.35,2.35,0,0,0,.54,1.43,1.06,1.06,0,0,0,.13.21l.06,0,0,.05a1.13,1.13,0,0,0,.22.13,2.29,2.29,0,0,0,1.43.54,2.44,2.44,0,0,0,2.41-2.41,2.29,2.29,0,0,0-.56-1.46A1.07,1.07,0,0,0,119.8,75Z"/><path class="cls-2" d="M136.12,104.25H63.88a1.2,1.2,0,0,0-1.2,1.2v26.69c0,5.76,3.78,10.44,8.43,10.44h57.79c4.65,0,8.43-4.68,8.43-10.44V105.45A1.2,1.2,0,0,0,136.12,104.25Zm-7.22,35.92H71.11c-3.32,0-6-3.6-6-8V106.66h69.83v25.49C134.91,136.57,132.21,140.17,128.89,140.17Z"/></svg>