<svg id="Layer_1" data-name="Layer 1" xmlns="http://www.w3.org/2000/svg" viewBox="0 0 200 200"><defs><style>.cls-1{fill:#404f60;}.cls-2{fill:#27ae61;}</style></defs><title>new icons</title><path class="cls-1" d="M188,151.83A36.14,36.14,0,0,1,151.83,188H48.17A36.13,36.13,0,0,1,12,151.83V48.18A36.13,36.13,0,0,1,48.17,12H151.83A36.14,36.14,0,0,1,188,48.18Z"/><path class="cls-2" d="M94.6,106.7h10.8a2,2,0,0,0,2-2V84.3a2,2,0,0,0-2-2H94.6a2,2,0,0,0-2,2v20.4A2,2,0,0,0,94.6,106.7Zm2-20.5h6.7v16.5H96.6Z"/><path class="cls-2" d="M71,106.7H81.8a2,2,0,0,0,2-2V84.3a2,2,0,0,0-2-2H71a2,2,0,0,0-2,2v20.4A2,2,0,0,0,71,106.7Zm2-20.5h6.7v16.5H73Z"/><path class="cls-2" d="M118.3,106.7H129a2,2,0,0,0,2-2V84.3a2,2,0,0,0-2-2H118.3a2,2,0,0,0-2,2v20.4A2,2,0,0,0,118.3,106.7Zm2-20.5H127v16.5h-6.7Z"/><path class="cls-2" d="M54.6,97.3a2,2,0,0,0-1.3,1.9v27.6a2,2,0,0,0,2,2h5.6a2,2,0,0,0,2-2v-9.1h4.6v9.1a2,2,0,0,0,2,2h8.6a2,2,0,0,0,2-2v-9.1h4.6v9.1a2,2,0,0,0,2,2h8.6a2,2,0,0,0,2-2v-9.1h4.6v9.1a2,2,0,0,0,2,2h8.6a2,2,0,0,0,2-2v-9.1H119v9.1a2,2,0,0,0,2,2h9.5a2,2,0,0,0,2-2v-9.1h4.6v9.1a2,2,0,0,0,2,2h5.6a2,2,0,0,0,2-2V99.1a2,2,0,0,0-1.3-1.9,6.2,6.2,0,0,1,0-11.6,2,2,0,0,0,1.3-1.9V78.2a7,7,0,0,0-7-7H60.3a7,7,0,0,0-7,7v5.7a2,2,0,0,0,1.3,1.9,6.2,6.2,0,0,1,0,11.6Zm2.7,3.1a10.2,10.2,0,0,0,0-17.8V78.2a3,3,0,0,1,3-3h79.4a3,3,0,0,1,3,3v4.4a10.2,10.2,0,0,0,0,17.8v24.4h-1.6v-9.1a2,2,0,0,0-2-2h-8.6a2,2,0,0,0-2,2v9.1H123v-9.1a2,2,0,0,0-2-2h-8.6a2,2,0,0,0-2,2v9.1h-4.6v-9.1a2,2,0,0,0-2-2H95.3a2,2,0,0,0-2,2v9.1H88.7v-9.1a2,2,0,0,0-2-2H78.1a2,2,0,0,0-2,2v9.1H71.5v-9.1a2,2,0,0,0-2-2H60.9a2,2,0,0,0-2,2v9.1H57.3Z"/></svg>