<svg id="Layer_1" data-name="Layer 1" xmlns="http://www.w3.org/2000/svg" xmlns:xlink="http://www.w3.org/1999/xlink" viewBox="0 0 200 200"><defs><style>.cls-1{fill:url(#radial-gradient);}.cls-2{fill:#020202;}.cls-3{fill:#fff;}</style><radialGradient id="radial-gradient" cx="94.31" cy="200.91" r="225.67" gradientUnits="userSpaceOnUse"><stop offset="0.09" stop-color="#faf707"/><stop offset="0.73" stop-color="#fffc00"/></radialGradient></defs><title>new icons</title><path class="cls-1" d="M188,151.83A36.14,36.14,0,0,1,151.83,188H48.17A36.13,36.13,0,0,1,12,151.83V48.18A36.13,36.13,0,0,1,48.17,12H151.83A36.14,36.14,0,0,1,188,48.18Z"/><path class="cls-2" d="M69.1,60.89c.22-.5.46-1,.7-1.46a32.42,32.42,0,0,1,5.66-8.09,29.84,29.84,0,0,1,6.64-5.16,31.72,31.72,0,0,1,6.68-2.86,34.82,34.82,0,0,1,5.83-1.24,43.26,43.26,0,0,1,5.75-.29,44,44,0,0,1,5.69.36,35.57,35.57,0,0,1,6,1.43,31.7,31.7,0,0,1,6.76,3.15,30,30,0,0,1,6.58,5.54,34.18,34.18,0,0,1,5.48,8.61c2.61,5.86,1.93,16.46,1.4,25-.09,1.35-.16,2.66-.23,3.91l0,.53.35.41a6.48,6.48,0,0,0,4.53,1.69h.1a12.85,12.85,0,0,0,3.88-.74,34,34,0,0,1,3.42-1.24,5.44,5.44,0,0,1,4.35,1.3c.83,1-.08,2.21-.85,2.82a14.08,14.08,0,0,1-3.65,2c-.45.18-1,.36-1.71.58-3,.93-7.42,2.35-8.92,5.88-.84,2-.62,4.34.69,7,.53,1.24,9,20.24,27.93,23.36a.77.77,0,0,1-.08.3c-.32.76-2.37,3.37-15.07,5.33-2,.31-2.49,2.54-3,5.13-.2.93-.41,1.86-.7,2.83-.08.29-.1.31-.41.31h-.15a14.14,14.14,0,0,1-2.41-.31,37.52,37.52,0,0,0-7.43-.78,32.72,32.72,0,0,0-5.4.45c-3.88.65-7.05,2.89-10.4,5.25a52.87,52.87,0,0,1-6.37,4,21.81,21.81,0,0,1-7.85,2.33c-.62.06-1.23.07-1.84.1a23.91,23.91,0,0,1-8.6-1.12,29.8,29.8,0,0,1-6.83-3.54c-.88-.59-1.75-1.2-2.61-1.81-3.35-2.36-6.52-4.6-10.4-5.25a32.67,32.67,0,0,0-5.39-.45,36.93,36.93,0,0,0-7.43.83,15.52,15.52,0,0,1-2.41.37c-.46,0-.47,0-.57-.37-.29-1-.49-1.92-.7-2.85-.57-2.6-1.06-4.83-3-5.14-12.71-2-14.76-4.59-15.08-5.34a1.57,1.57,0,0,1-.08-.31c19-3.12,27.4-22.1,27.93-23.36,1.31-2.64,1.54-5,.69-7-1.5-3.53-6-5-8.91-5.88-.68-.22-1.26-.4-1.7-.58-1.75-.69-7.11-3.2-3.62-5.35a4.22,4.22,0,0,1,2.47-.7,9.07,9.07,0,0,1,2.64.84,15.35,15.35,0,0,0,5.37,1.12c3.3,0,4.76-1.54,4.92-1.71l.34-.41,0-.53c-.07-1.24-.15-2.56-.24-3.91C67.17,77.33,66.5,66.74,69.1,60.89Zm14.67-19a33.13,33.13,0,0,0-9.5,6.3,35.37,35.37,0,0,0-7.95,11.42C63.41,66.18,64.1,77.19,64.64,86v0c.06.94.12,1.93.17,2.9a5.18,5.18,0,0,1-2.14.4,12.53,12.53,0,0,1-4.44-1,11.18,11.18,0,0,0-3.78-1,7.25,7.25,0,0,0-3.7,1.07A5.46,5.46,0,0,0,48,92a4.9,4.9,0,0,0,1.86,4.59,16.07,16.07,0,0,0,4.86,2.79c.55.22,1.21.42,1.9.64,2.42.78,6.07,1.93,7,4.17.47,1.14.27,2.63-.63,4.44,0,0,0,.09-.06.15A38.37,38.37,0,0,1,58.7,116a38.75,38.75,0,0,1-9.21,9.28,30.69,30.69,0,0,1-6,3.28,59.38,59.38,0,0,1-5.88,1.62c-1.58.44-2.9,1.48-2.79,3.29a4,4,0,0,0,.32,1.34c.62,1.46,2.06,2.7,4.42,3.79a50.6,50.6,0,0,0,12.75,3.33,16,16,0,0,1,.78,2.82c.2,1,.42,2,.75,3.06a3.34,3.34,0,0,0,3.5,2.56,17.08,17.08,0,0,0,3-.42,34.35,34.35,0,0,1,6.85-.78,29.75,29.75,0,0,1,4.9.42c3.19.53,5.95,2.47,9.13,4.73l.82.57a49.51,49.51,0,0,0,6.13,3.81,25.33,25.33,0,0,0,7.64,2.42,31.89,31.89,0,0,0,4.62.23,29.26,29.26,0,0,0,5.07-.44,25.89,25.89,0,0,0,7.4-2.74q1.6-.87,3.12-1.9a32.17,32.17,0,0,0,2.85-2h0c3.19-2.25,5.94-4.19,9.14-4.72a29.69,29.69,0,0,1,4.89-.42,33.94,33.94,0,0,1,6.85.73,16.33,16.33,0,0,0,3,.37h.15a3.3,3.3,0,0,0,3.35-2.51c.32-1.05.54-2,.75-3a15.47,15.47,0,0,1,.79-2.8,50.49,50.49,0,0,0,12.74-3.32c2.35-1.1,3.79-2.33,4.42-3.78a4.13,4.13,0,0,0,.32-1.35,3,3,0,0,0-2.55-3.18c-17.43-2.88-25.29-20.79-25.61-21.55l-.07-.15c-.9-1.82-1.1-3.31-.62-4.44,1-2.24,4.6-3.4,7-4.17.7-.22,1.36-.43,1.9-.64a14.65,14.65,0,0,0,5.21-3.12,4.91,4.91,0,0,0,1.58-3.56c-.06-3.39-3.4-5.24-6.38-5.32a12.59,12.59,0,0,0-4.54,1,13,13,0,0,1-4.18,1,4.8,4.8,0,0,1-1.8-.4c.05-.81.1-1.65.16-2.52l0-.38c.55-8.85,1.25-19.86-1.67-26.41a35.59,35.59,0,0,0-8-11.45,33.08,33.08,0,0,0-9.53-6.31,37.83,37.83,0,0,0-11.47-3c-1.51-.15-3.07-.27-4.58-.27a43.57,43.57,0,0,0-10,1.15A36.67,36.67,0,0,0,83.77,41.92Z"/><path class="cls-3" d="M147,138.95c12.7-2,14.75-4.58,15.07-5.33a.77.77,0,0,0,.08-.3c-19-3.12-27.4-22.12-27.93-23.36-1.31-2.65-1.53-5-.69-7,1.5-3.53,6-5,8.92-5.88.67-.22,1.25-.4,1.71-.58a14.08,14.08,0,0,0,3.65-2c.76-.61,1.67-1.86.85-2.82a5.44,5.44,0,0,0-4.35-1.3,34,34,0,0,0-3.42,1.24,12.85,12.85,0,0,1-3.88.74h-.1a6.48,6.48,0,0,1-4.53-1.69l-.35-.41,0-.53c.07-1.25.15-2.56.23-3.91.54-8.52,1.22-19.12-1.4-25a34.18,34.18,0,0,0-5.48-8.61,30,30,0,0,0-6.58-5.54,31.7,31.7,0,0,0-6.76-3.15,35.57,35.57,0,0,0-6-1.43,44,44,0,0,0-5.69-.36,43.26,43.26,0,0,0-5.75.29,34.82,34.82,0,0,0-5.83,1.24,31.72,31.72,0,0,0-6.68,2.86,29.84,29.84,0,0,0-6.64,5.16,32.42,32.42,0,0,0-5.66,8.09c-.24.49-.48,1-.7,1.46-2.6,5.85-1.93,16.44-1.4,25,.09,1.34.16,2.66.24,3.91l0,.53-.34.41c-.16.18-1.62,1.71-4.92,1.71a15.35,15.35,0,0,1-5.37-1.12,9.07,9.07,0,0,0-2.64-.84,4.22,4.22,0,0,0-2.47.7c-3.48,2.15,1.88,4.66,3.62,5.35.44.18,1,.36,1.7.58,3,.93,7.41,2.35,8.91,5.88.85,2,.62,4.36-.69,7-.53,1.26-9,20.24-27.93,23.36a1.57,1.57,0,0,0,.08.31c.32.75,2.37,3.38,15.08,5.34,2,.31,2.48,2.54,3,5.14.2.93.4,1.88.7,2.85.1.34.1.37.57.37a15.52,15.52,0,0,0,2.41-.37,36.93,36.93,0,0,1,7.43-.83,32.67,32.67,0,0,1,5.39.45c3.88.65,7.05,2.89,10.4,5.25.87.61,1.73,1.23,2.61,1.81a29.8,29.8,0,0,0,6.83,3.54,23.91,23.91,0,0,0,8.6,1.12c.61,0,1.22,0,1.84-.1a21.81,21.81,0,0,0,7.85-2.33,52.87,52.87,0,0,0,6.37-4c3.35-2.36,6.52-4.6,10.4-5.25a32.72,32.72,0,0,1,5.4-.45,37.52,37.52,0,0,1,7.43.78,14.14,14.14,0,0,0,2.41.31h.15c.31,0,.33,0,.41-.31.29-1,.5-1.91.7-2.83C144.52,141.49,145,139.26,147,138.95Z"/></svg>