<svg id="Layer_1" data-name="Layer 1" xmlns="http://www.w3.org/2000/svg" viewBox="0 0 200 200"><defs><style>.cls-1{fill:#404f60;}.cls-2{fill:#27ae61;}</style></defs><title>new icons</title><path class="cls-1" d="M188,151.83A36.14,36.14,0,0,1,151.83,188H48.17A36.13,36.13,0,0,1,12,151.83V48.18A36.13,36.13,0,0,1,48.17,12H151.83A36.14,36.14,0,0,1,188,48.18Z"/><path class="cls-2" d="M126.73,130.25V64a9.2,9.2,0,0,0-9.18-9.19H82.45A9.2,9.2,0,0,0,73.27,64v72a9.2,9.2,0,0,0,9.18,9.19h35.1a9.2,9.2,0,0,0,9.18-9.19v-5.56A1.21,1.21,0,0,0,126.73,130.25ZM77.27,69.06h45.46v59.37H77.27Zm5.18-10.2h35.1A5.19,5.19,0,0,1,122.73,64v1H77.27V64A5.19,5.19,0,0,1,82.45,58.86Zm35.1,82.27H82.45A5.19,5.19,0,0,1,77.27,136v-3.57h45.46V136a5.19,5.19,0,0,1-5.18,5.14Z"/><circle class="cls-2" cx="100" cy="137.1" r="3"/></svg>