<svg xmlns="http://www.w3.org/2000/svg" xmlns:xlink="http://www.w3.org/1999/xlink" viewBox="0 0 200 200"><defs><style>.cls-1{fill:none;}.cls-2{isolation:isolate;}.cls-3{fill:url(#radial-gradient);}.cls-4{clip-path:url(#clip-path);}.cls-5{fill:#db4639;}.cls-6,.cls-8{mix-blend-mode:multiply;}.cls-6{fill:url(#linear-gradient);}.cls-7{fill:#fff;}.cls-8{fill:url(#linear-gradient-2);}</style><radialGradient id="radial-gradient" cx="28.79" cy="204.82" r="173.72" gradientUnits="userSpaceOnUse"><stop offset="0.22" stop-color="#e7e7e7"/><stop offset="0.88" stop-color="#fcfcfc"/></radialGradient><clipPath id="clip-path"><circle class="cls-1" cx="100" cy="100" r="63.48"/></clipPath><linearGradient id="linear-gradient" x1="361.52" y1="338.07" x2="362.35" y2="447.11" gradientTransform="translate(-513.74 180.15) rotate(-45) scale(1.32 1)" gradientUnits="userSpaceOnUse"><stop offset="0" stop-color="#b3b3b3"/><stop offset="0.77" stop-color="#fff"/></linearGradient><linearGradient id="linear-gradient-2" x1="811.57" y1="91.68" x2="812.25" y2="180.38" gradientTransform="translate(-214.66 375.98) rotate(-45) scale(0.54 0.48)" xlink:href="#linear-gradient"/></defs><title>new icons</title><g class="cls-2"><g id="Layer_1" data-name="Layer 1"><path class="cls-3" d="M188,151.82A36.14,36.14,0,0,1,151.83,188H48.18A36.14,36.14,0,0,1,12,151.82V48.17A36.14,36.14,0,0,1,48.18,12H151.83A36.13,36.13,0,0,1,188,48.17Z"/><g class="cls-4"><circle class="cls-5" cx="100" cy="100" r="63.48"/><polygon class="cls-6" points="168.09 143.81 126.76 185.14 60.12 118.5 65.88 81.85 101.45 77.17 168.09 143.81"/><path class="cls-7" d="M111.05,95.46H82.69V105.6h17a18.25,18.25,0,1,1-17.2-24.51,17.92,17.92,0,0,1,11.57,4.24h.47L102,77.72a28.72,28.72,0,0,0-19.53-7.66,29.52,29.52,0,0,0,0,59,28.31,28.31,0,0,0,6.25-.69A28.72,28.72,0,0,0,100.18,123a29.69,29.69,0,0,0,8-9.7,30.11,30.11,0,0,0,2.32-6c.68-2.61.51-5.23.51-7.91Z"/><polygon class="cls-8" points="169.23 118.5 152.23 135.49 120.54 103.81 137.53 86.8 169.23 118.5"/><rect class="cls-7" x="129.01" y="86.78" width="8.51" height="25.43"/><rect class="cls-7" x="120.56" y="95.24" width="25.43" height="8.51"/></g></g></g></svg>